<svg width="24" height="25" viewBox="0 0 24 25" fill="none" xmlns="http://www.w3.org/2000/svg">
<g clip-path="url(#clip0_536_477)">
<path d="M12 24.5193C18.6274 24.5193 24 19.1467 24 12.5193C24 5.89187 18.6274 0.519287 12 0.519287C5.37258 0.519287 0 5.89187 0 12.5193C0 19.1467 5.37258 24.5193 12 24.5193Z" fill="#63B2E3"/>
<path d="M12 24.2371C18.4716 24.2371 23.7178 18.9908 23.7178 12.5193C23.7178 6.04774 18.4716 0.801514 12 0.801514C5.52846 0.801514 0.282227 6.04774 0.282227 12.5193C0.282227 18.9908 5.52846 24.2371 12 24.2371Z" fill="white"/>
<path d="M5.25108 9.80061C5.14007 9.79873 4.99332 9.80249 4.82022 9.82695C4.72239 9.84012 4.35362 9.89845 3.95663 10.1016C3.69134 10.2371 3.02906 10.5758 2.75813 11.3284C2.70169 11.4864 2.54929 11.9267 2.70357 12.4497C2.75813 12.6341 2.9745 13.2475 3.62173 13.5109C4.3856 13.8213 5.06293 13.3603 5.12126 13.319C5.52953 13.0311 5.68193 12.6303 5.73085 12.4685C5.87196 12.0113 5.78165 11.6012 5.69322 11.3867C5.62737 11.223 5.58786 11.1289 5.49567 11.0236C5.39595 10.9107 5.31505 10.8806 5.29435 10.7752C5.26801 10.6397 5.36961 10.5193 5.37525 10.5118C5.38654 10.4986 5.43546 10.4441 5.53518 10.4083C5.77789 10.3218 6.02248 10.4441 6.06763 10.4685C6.11467 10.493 6.26707 10.5795 6.43076 10.8542C6.48908 10.9521 6.65277 11.2456 6.69793 11.7103C6.75061 12.2409 6.61702 12.6586 6.5587 12.826C6.45898 13.1045 6.18617 13.7103 5.5333 14.1186C4.59821 14.7037 3.61985 14.4215 3.48814 14.3895C3.28494 14.3387 2.27083 14.0038 1.8475 12.8448C1.56528 12.0753 1.75531 11.3961 1.8475 11.1346C2.0714 10.493 2.49285 10.1092 2.70357 9.9436C2.99896 9.71218 3.26801 9.60306 3.33763 9.57672C4.173 9.25499 4.97638 9.53344 5.25296 9.64445C5.25296 9.64445 5.41477 9.70466 5.37149 9.76298C5.3301 9.81566 5.25108 9.80061 5.25108 9.80061Z" fill="#308BC5"/>
<path d="M3.98097 10.2992C3.98097 10.2992 3.99414 10.3255 4.03742 10.3255C4.08069 10.3255 4.35727 10.2898 4.63384 10.3669C4.91042 10.444 5.02895 10.4779 5.18887 10.35C5.3488 10.222 5.19264 10.0339 5.06093 10.0151C4.92923 9.99626 4.73168 9.99626 4.43064 10.0866C4.12961 10.1769 3.97345 10.2408 3.98097 10.2992Z" fill="#27AAE1"/>
<path d="M5.41658 9.9021C5.41658 9.9021 5.59155 9.90774 5.59155 10.0413C5.59155 10.1749 5.44856 10.1241 5.41658 10.0714C5.38459 10.0188 5.29428 9.98488 5.29428 9.98488C5.29428 9.98488 5.23596 9.97171 5.23784 9.94726C5.23972 9.9228 5.28299 9.90774 5.41658 9.9021Z" fill="#27AAE1"/>
<path d="M5.56895 9.79863C5.56895 9.79863 5.62163 9.74971 5.72888 9.77981C5.83612 9.80991 5.83236 9.86824 5.82295 9.8927C5.81354 9.91716 5.77403 9.93974 5.72323 9.91151C5.67243 9.88329 5.66679 9.8626 5.61787 9.84754C5.56895 9.83249 5.56519 9.82685 5.56895 9.79863Z" fill="#27AAE1"/>
<path d="M5.82669 10.0772C5.82669 10.0772 5.78342 10.0678 5.78154 10.1148C5.77965 10.1619 5.84174 10.1901 5.86997 10.1656C5.90007 10.1412 5.88314 10.0941 5.82669 10.0772Z" fill="#27AAE1"/>
<path d="M7.35257 10.7468C7.35257 10.7468 7.31118 9.9698 7.52378 9.74026C7.73639 9.51072 7.89255 9.52766 7.99603 9.50508C8.09763 9.4825 9.29424 9.49379 9.29424 9.49379C9.29424 9.49379 10.1296 9.44299 10.5755 10.1899C11.0195 10.935 10.7411 11.855 10.5247 12.1805C10.3102 12.506 10.1992 12.634 9.77402 12.839L10.7411 14.1071C10.7411 14.1071 10.9386 14.3273 10.7185 14.4025H10.2143C10.2143 14.4025 9.85304 14.4289 9.6028 14.1071L8.5981 12.839C8.5981 12.839 8.30459 12.5794 8.35163 12.1937C8.39866 11.8061 8.6188 11.9623 8.75238 12.0055C8.88597 12.0488 9.39772 12.1241 9.65549 11.7948C9.91325 11.4656 10.0017 11.0366 9.71569 10.6471C9.71569 10.6471 9.54448 10.331 8.88973 10.3762H8.4758C8.4758 10.3762 8.29142 10.38 8.2933 10.6302C8.29707 10.8823 8.2933 13.3452 8.2933 13.3452C8.2933 13.3452 8.33469 13.7365 7.89819 13.9246C7.89819 13.9246 7.64796 14.0262 7.56517 14.1373C7.48051 14.2464 7.40901 14.2727 7.36574 14.1768C7.36574 14.1768 7.34316 14.1617 7.34881 13.9115C7.35445 13.6594 7.35257 10.7468 7.35257 10.7468Z" fill="#308BC5"/>
<path d="M8.30084 13.8157V14.1242C8.30084 14.1242 8.30272 14.382 8.02426 14.4008H7.72699C7.72699 14.4008 7.57459 14.4027 7.59341 14.286C7.6141 14.1694 7.85117 14.0508 7.85117 14.0508C7.85117 14.0508 7.99792 13.9888 8.14656 13.8627C8.29331 13.7348 8.28955 13.7592 8.30084 13.8157Z" fill="#27AAE1"/>
<path d="M7.26235 14.0414L7.23789 14.1543C7.23789 14.1543 7.21719 14.2295 7.26235 14.2389C7.30938 14.2484 7.33572 14.1976 7.30562 14.0865C7.27552 13.9737 7.26235 14.0414 7.26235 14.0414Z" fill="#27AAE1"/>
<path d="M7.31876 14.4007C7.31876 14.4007 7.2849 14.3443 7.31876 14.3141C7.35263 14.284 7.38461 14.2596 7.48245 14.2709L7.50315 14.2803C7.50315 14.2803 7.53325 14.3123 7.45423 14.4007C7.37521 14.4891 7.31876 14.4007 7.31876 14.4007Z" fill="#27AAE1"/>
<path d="M7.56726 14.3537C7.56726 14.3537 7.59736 14.3857 7.58043 14.4121C7.5635 14.4384 7.53151 14.4516 7.51082 14.4328C7.49012 14.4139 7.50894 14.3368 7.56726 14.3537Z" fill="#27AAE1"/>
<path d="M10.7769 14.0452C10.7769 14.0452 10.9669 14.1656 11.0516 14.1957C11.1362 14.2258 11.1776 14.3142 11.1381 14.3744C11.0986 14.4346 10.9443 14.3895 10.9086 14.3123C10.8709 14.2371 10.8371 14.1505 10.7769 14.0452Z" fill="#27AAE1"/>
<path d="M10.8428 14.3686C10.8428 14.3686 10.7976 14.3743 10.7976 14.4025C10.7976 14.4307 10.8672 14.4345 10.8973 14.427C10.9255 14.4176 10.9425 14.3461 10.8428 14.3686Z" fill="#27AAE1"/>
<path d="M14.9952 9.79109C14.8842 9.78921 14.7375 9.79297 14.5644 9.81743C14.4665 9.8306 14.0978 9.88893 13.7008 10.0921C13.4355 10.2276 12.7732 10.5663 12.5023 11.3188C12.4458 11.4769 12.2934 11.9171 12.4477 12.4402C12.5023 12.6246 12.7186 13.2379 13.3659 13.5013C14.1297 13.8118 14.8071 13.3508 14.8654 13.3094C15.2737 13.0216 15.4261 12.6208 15.475 12.459C15.6161 12.0018 15.5258 11.5917 15.4374 11.3772C15.3715 11.2135 15.332 11.1194 15.2398 11.014C15.1401 10.9012 15.0592 10.8711 15.0385 10.7657C15.0122 10.6302 15.1138 10.5098 15.1194 10.5023C15.1307 10.4891 15.1796 10.4346 15.2793 10.3988C15.522 10.3123 15.7666 10.4346 15.8118 10.459C15.8588 10.4835 16.0112 10.57 16.1749 10.8447C16.2332 10.9425 16.3969 11.2361 16.4421 11.7008C16.4947 12.2314 16.3612 12.649 16.3028 12.8165C16.2031 13.0949 15.9303 13.7008 15.2774 14.1091C14.3423 14.6942 13.364 14.412 13.2323 14.38C13.0291 14.3292 12.015 13.9943 11.5916 12.8353C11.3094 12.0658 11.4995 11.3866 11.5916 11.1251C11.8155 10.4835 12.237 10.0997 12.4477 9.93408C12.7431 9.70266 13.0122 9.59354 13.0818 9.5672C13.9171 9.24546 14.7205 9.52392 14.9971 9.63493C14.9971 9.63493 15.1589 9.69514 15.1156 9.75346C15.0724 9.81179 14.9952 9.79109 14.9952 9.79109Z" fill="#308BC5"/>
<path d="M13.7271 10.2897C13.7271 10.2897 13.7402 10.316 13.7835 10.316C13.8268 10.316 14.1034 10.2802 14.3799 10.3574C14.6565 10.4345 14.775 10.4684 14.935 10.3405C15.0949 10.2125 14.9387 10.0244 14.807 10.0056C14.6753 9.98674 14.4778 9.98674 14.1767 10.077C13.8776 10.1692 13.7195 10.2332 13.7271 10.2897Z" fill="#27AAE1"/>
<path d="M15.1627 9.89258C15.1627 9.89258 15.3376 9.89822 15.3376 10.0318C15.3376 10.1654 15.1947 10.1146 15.1627 10.0619C15.1307 10.0092 15.0404 9.97536 15.0404 9.97536C15.0404 9.97536 14.982 9.96219 14.9839 9.93773C14.9858 9.91327 15.0272 9.9001 15.1627 9.89258Z" fill="#27AAE1"/>
<path d="M15.3132 9.79106C15.3132 9.79106 15.3659 9.74214 15.4732 9.77224C15.5804 9.80235 15.5767 9.86067 15.5672 9.88513C15.556 9.90959 15.5183 9.93217 15.4675 9.90395C15.4167 9.87572 15.4111 9.85503 15.3622 9.83998C15.3114 9.82492 15.3095 9.81928 15.3132 9.79106Z" fill="#27AAE1"/>
<path d="M15.5728 10.0696C15.5728 10.0696 15.5295 10.0602 15.5276 10.1072C15.5257 10.1543 15.5878 10.1825 15.6161 10.158C15.6443 10.1336 15.6273 10.0847 15.5728 10.0696Z" fill="#27AAE1"/>
<path d="M17.1082 10.5098C17.1082 10.5098 17.063 10.0075 17.3527 9.73088C17.6425 9.4543 17.9228 9.41855 18.2464 9.61611C18.2464 9.61611 18.3763 9.64057 18.5908 10.2633C18.8052 10.8861 19.3076 12.3781 19.3076 12.3781L19.4205 12.7168C19.4205 12.7168 19.4845 12.8729 19.5296 12.7694C19.5748 12.666 20.4308 10.1034 20.4308 10.1034C20.4308 10.1034 20.5889 9.59918 20.9727 9.51263C21.3565 9.42608 21.5635 9.84753 21.586 9.99993C21.6105 10.1523 21.7309 10.2539 21.7309 10.2539C21.7309 10.2539 21.8645 10.3593 21.8739 10.4778C21.8833 10.5964 21.8739 13.6989 21.8739 13.6989C21.8739 13.6989 21.8908 13.9209 21.5729 14.0018C21.2549 14.0827 21.174 14.1072 21.174 14.1072C21.174 14.1072 21.0329 14.1787 20.9689 14.0959C20.9689 14.0959 20.9332 14.0771 20.9332 13.9096C20.9332 13.7422 20.9313 11.379 20.9313 11.379L20.1317 13.6594C20.1317 13.6594 19.9473 14.1994 19.539 14.2878C19.1307 14.3762 18.9896 14.0187 18.9388 13.9303C18.888 13.8419 18.1674 11.6876 18.1674 11.6876C18.1674 11.6876 18.1505 11.6255 18.1053 11.6255C18.0602 11.6255 18.0621 11.697 18.0621 11.697L18.0564 14.2219C18.0564 14.2219 18.0564 14.3988 17.8081 14.4044C17.5597 14.4101 17.3659 14.4044 17.3659 14.4044C17.3659 14.4044 17.2135 14.4157 17.1947 14.2257C17.1759 14.0338 17.1439 13.9886 17.1439 13.9886C17.1439 13.9886 17.1082 13.9378 17.1063 13.8231C17.1025 13.7102 17.1082 10.5098 17.1082 10.5098Z" fill="#308BC5"/>
<path d="M16.982 13.7986C16.982 13.7986 17.061 13.9209 16.982 14C16.9029 14.079 16.8672 13.9642 16.8672 13.9642C16.8672 13.9642 16.8728 13.9172 16.9123 13.8777C16.9537 13.84 16.9424 13.8156 16.9424 13.8156C16.9424 13.8156 16.9669 13.7685 16.982 13.7986Z" fill="#27AAE1"/>
<path d="M16.888 14.0996C16.888 14.0996 16.8503 14.126 16.8503 14.1504C16.8503 14.1749 16.8673 14.1881 16.9218 14.1617C16.9764 14.1354 16.967 14.0996 16.967 14.0996C16.967 14.0996 16.9519 14.0639 16.888 14.0996Z" fill="#27AAE1"/>
<path d="M17.0892 14.0264C17.0892 14.0264 17.1776 14.3669 17.0553 14.4553C16.933 14.5438 16.8352 14.4478 16.8333 14.3933C16.8314 14.3387 16.9424 14.2597 16.9424 14.2597C16.9424 14.2597 17.0835 14.1976 17.0892 14.0264Z" fill="#27AAE1"/>
<path d="M17.1513 14.4758C17.1513 14.4758 17.1889 14.5041 17.2284 14.4909C17.268 14.4777 17.2849 14.4288 17.2548 14.4062C17.2228 14.3855 17.2021 14.3799 17.1871 14.3592C17.172 14.3385 17.1532 14.3422 17.1513 14.3799C17.1475 14.4194 17.1287 14.4269 17.1513 14.4758Z" fill="#27AAE1"/>
<path d="M19.4487 14.4063C19.4487 14.4063 19.6858 14.4307 19.8627 14.2614C20.0395 14.0921 20.175 14.0958 20.2183 14.1711C20.2615 14.2445 20.2333 14.4119 19.9962 14.4345C19.7592 14.4552 19.6124 14.4514 19.4487 14.4063Z" fill="#27AAE1"/>
<path d="M20.8258 14.0995C20.8258 14.0995 20.7317 14.124 20.7204 14.188C20.7091 14.2519 20.7806 14.2425 20.8258 14.1993C20.8709 14.156 20.8521 14.1748 20.8804 14.1654C20.9086 14.156 20.9067 14.0977 20.8653 14.0977C20.8239 14.0977 20.8258 14.0995 20.8258 14.0995Z" fill="#27AAE1"/>
<path d="M21.012 14.1805C21.012 14.1805 20.9029 14.1598 20.8201 14.284C20.8201 14.284 20.8032 14.3178 20.7185 14.3235C20.6339 14.3291 20.6903 14.4552 20.8088 14.4458C20.9274 14.4383 20.9669 14.3818 20.9707 14.3367C20.9744 14.2915 21.0497 14.2652 21.0497 14.2652C21.0497 14.2652 21.0779 14.2539 21.076 14.2181C21.0741 14.1824 21.0365 14.1805 21.012 14.1805Z" fill="#27AAE1"/>
<path d="M21.0574 14.3667C21.0574 14.3667 21.0555 14.2237 21.3791 14.1673C21.7046 14.109 21.8645 13.981 21.8777 13.9058V14.1673C21.8777 14.1673 21.8852 14.4081 21.6745 14.4081C21.4638 14.4081 21.1345 14.4081 21.1345 14.4081C21.1345 14.4081 21.0479 14.4025 21.0574 14.3667Z" fill="#27AAE1"/>
<path d="M21.3433 9.50889C21.3433 9.50889 21.6499 9.71397 21.7045 9.9755C21.7591 10.2351 21.9246 10.1542 21.9453 10.0639C21.966 9.97362 21.9529 9.68952 21.7384 9.57475C21.5239 9.45998 21.3433 9.50889 21.3433 9.50889Z" fill="#27AAE1"/>
<path d="M5.25863 9.80047C5.14763 9.79859 5.00087 9.80235 4.82778 9.82681C4.72994 9.83998 4.36117 9.89831 3.96418 10.1015C3.6989 10.237 3.03662 10.5756 2.76569 11.3282C2.70925 11.4863 2.55685 11.9265 2.71113 12.4496C2.76569 12.634 2.98206 13.2473 3.62928 13.5107C4.39316 13.8212 5.07049 13.3602 5.12881 13.3188C5.53709 13.031 5.68949 12.6302 5.73841 12.4684C5.87952 12.0112 5.78921 11.601 5.70078 11.3865C5.63493 11.2229 5.59542 11.1288 5.50323 11.0234C5.40351 10.9105 5.3226 10.8804 5.30191 10.7751C5.27557 10.6396 5.41103 10.6321 5.42044 10.6321C5.50511 10.6264 5.53333 10.6396 5.58601 10.6791C5.61047 10.6979 5.66315 10.7469 5.70078 10.7826C5.73653 10.8165 5.79862 10.871 5.89081 11.0008C5.95666 11.0949 5.99617 11.1438 6.1053 11.522C6.19372 11.8287 6.20125 12.109 6.14857 12.4251C6.09965 12.7186 5.91527 13.1928 5.41103 13.5427C4.50417 14.173 3.87199 13.9246 3.74029 13.8908C3.53709 13.84 2.74876 13.4882 2.51169 12.839C2.26334 12.1598 2.34048 11.6236 2.3988 11.4035C2.47783 11.11 2.602 10.8447 2.84847 10.5512C3.00652 10.363 3.28309 10.1824 3.44114 10.0996C3.89833 9.86068 4.1862 9.7271 4.8767 9.70264C4.8767 9.70264 5.41292 9.70264 5.36964 9.75908C5.33201 9.81364 5.25863 9.80047 5.25863 9.80047Z" fill="#2D81B6"/>
<path d="M3.98119 10.2992C3.98119 10.2992 3.99436 10.3255 4.03763 10.3255C4.08091 10.3255 4.35748 10.2897 4.63406 10.3669C4.91063 10.444 5.02917 10.4779 5.18909 10.35C5.34902 10.222 4.97648 10.1806 4.84478 10.1731C4.72437 10.1674 4.61901 10.1656 4.4365 10.1806C4.15052 10.207 3.97366 10.2408 3.98119 10.2992Z" fill="#269ED1"/>
<path d="M5.42034 9.9737C5.42034 9.9737 5.59155 9.98311 5.59155 10.0396C5.59155 10.1731 5.44856 10.1223 5.41658 10.0697C5.38459 10.017 5.29428 9.98311 5.29428 9.98311C5.29428 9.98311 5.23596 9.96994 5.23784 9.94548C5.23972 9.92102 5.26794 9.96806 5.42034 9.9737Z" fill="#269ED1"/>
<path d="M5.56895 9.79858C5.56895 9.79858 5.56707 9.82492 5.67432 9.85503C5.78156 9.88513 5.83236 9.8682 5.82295 9.89454C5.81354 9.92088 5.77403 9.94158 5.72323 9.91335C5.67243 9.88513 5.66679 9.86444 5.61787 9.84938C5.56895 9.83433 5.56519 9.82681 5.56895 9.79858Z" fill="#269ED1"/>
<path d="M5.81359 10.1204C5.81359 10.1204 5.79854 10.1147 5.78349 10.1147C5.78161 10.1618 5.8437 10.19 5.87192 10.1655C5.86815 10.1505 5.86816 10.1373 5.81359 10.1204Z" fill="#269ED1"/>
<path d="M8.05436 13.6707C8.10704 13.5277 8.12773 13.2925 8.12585 13.1401C8.11644 12.3311 8.0901 10.6302 8.15972 10.4345C8.25567 10.1693 8.41748 10.1918 8.52472 10.1749C8.568 10.1674 9.21522 10.1749 9.41089 10.2201C9.45417 10.2332 9.91513 10.3574 10.0581 10.9331C10.1315 11.2285 10.0449 11.5333 9.89631 11.8005C9.69876 12.1542 9.47486 12.2219 9.17947 12.2351C8.82576 12.2012 8.69594 12.0583 8.52284 12.0808C8.0901 12.2746 9.21898 13.4712 9.54824 13.8456C9.70064 14.0206 9.87185 14.2464 10.1785 14.4007C10.1785 14.4007 9.86621 14.4101 9.6028 14.1128L8.5981 12.8447C8.5981 12.8447 8.30459 12.5851 8.35163 12.1994C8.39866 11.8118 8.6188 11.9679 8.75238 12.0112C8.88596 12.0545 9.39772 12.1298 9.65548 11.8005C9.91325 11.4712 10.0017 11.0423 9.71569 10.6528C9.71569 10.6528 9.54448 10.3367 8.88973 10.3819H8.4758C8.4758 10.3819 8.29142 10.3856 8.2933 10.6359C8.29706 10.888 8.2933 13.3508 8.2933 13.3508C8.2933 13.3508 8.33469 13.7346 7.89819 13.9228L8.05436 13.6707Z" fill="#2D81B6"/>
<path d="M7.26235 14.0414L7.23789 14.1543C7.23789 14.1543 7.21719 14.2295 7.26235 14.2389C7.21343 14.1505 7.33572 14.1976 7.30562 14.0865C7.27552 13.9737 7.26235 14.0414 7.26235 14.0414Z" fill="#269ED1"/>
<path d="M7.31876 14.4007C7.31876 14.4007 7.2849 14.3442 7.31876 14.3141C7.31876 14.3894 7.36015 14.4364 7.44294 14.3856C7.48809 14.348 7.49938 14.3085 7.50315 14.2803C7.50315 14.2803 7.53325 14.3123 7.45423 14.4007C7.37521 14.4891 7.31876 14.4007 7.31876 14.4007Z" fill="#269ED1"/>
<path d="M7.56726 14.3537C7.55033 14.365 7.54656 14.365 7.53151 14.382C7.52022 14.3951 7.51082 14.4102 7.51082 14.4328C7.49012 14.4139 7.50894 14.3368 7.56726 14.3537Z" fill="#269ED1"/>
<path d="M8.30091 13.8157C8.28586 13.9022 8.25199 13.9812 8.19555 14.0452C8.19555 14.0452 7.96977 14.286 7.69131 14.303C7.62734 14.3274 7.66497 14.3556 7.72894 14.4008C7.72894 14.4008 7.57654 14.4027 7.59536 14.286C7.61606 14.1694 7.85312 14.0508 7.85312 14.0508C7.85312 14.0508 7.99987 13.9888 8.14851 13.8627C8.29338 13.7348 8.28962 13.7592 8.30091 13.8157Z" fill="#269ED1"/>
<path d="M10.8428 14.3687C10.8428 14.3687 10.7976 14.3743 10.7976 14.4025C10.7976 14.4307 10.8672 14.4345 10.8973 14.427C10.7769 14.4176 10.9143 14.3799 10.8428 14.3687Z" fill="#269ED1"/>
<path d="M10.7769 14.0452C10.7769 14.0452 10.8841 14.2013 10.9518 14.2672C10.9876 14.3029 11.0271 14.3594 11.1381 14.3744C11.0986 14.4346 10.9443 14.3895 10.9086 14.3123C10.8709 14.2371 10.8371 14.1505 10.7769 14.0452Z" fill="#269ED1"/>
<path d="M15.0045 9.7912C14.8935 9.78931 14.7467 9.79308 14.5736 9.81754C14.4758 9.83071 14.107 9.88903 13.71 10.0922C13.4447 10.2277 12.7825 10.5664 12.5115 11.3189C12.4551 11.477 12.3027 11.9173 12.457 12.4403C12.5115 12.6247 12.7279 13.238 13.3751 13.5015C14.139 13.8119 14.8163 13.3509 14.8747 13.3095C15.2829 13.0217 15.4353 12.6209 15.4843 12.4591C15.6254 12.0019 15.5351 11.5918 15.4466 11.3773C15.3808 11.2136 15.3413 11.1195 15.2491 11.0141C15.1494 10.9013 15.0685 10.8712 15.0478 10.7658C15.0214 10.6303 15.1569 10.6228 15.1663 10.6228C15.251 10.6172 15.2792 10.6303 15.3319 10.6698C15.3563 10.6887 15.409 10.7376 15.4466 10.7733C15.4824 10.8072 15.5445 10.8618 15.6367 10.9916C15.7025 11.0856 15.742 11.1346 15.8511 11.5127C15.9396 11.8194 15.9471 12.0998 15.8944 12.4158C15.8455 12.7094 15.6611 13.1835 15.1569 13.5334C14.25 14.1637 13.6178 13.9154 13.4861 13.8815C13.2829 13.8307 12.4946 13.4789 12.2575 12.8298C12.0092 12.1506 12.0863 11.6143 12.1447 11.3942C12.2237 11.1007 12.3479 10.8354 12.5943 10.5419C12.7524 10.3538 13.0289 10.1731 13.187 10.0903C13.6442 9.8514 13.932 9.71782 14.6225 9.69336C14.6225 9.69336 15.1588 9.69336 15.1155 9.7498C15.0779 9.80625 15.0045 9.7912 15.0045 9.7912Z" fill="#2D81B6"/>
<path d="M13.727 10.2896C13.727 10.2896 13.7402 10.316 13.7835 10.316C13.8268 10.316 14.1033 10.2802 14.3799 10.3574C14.6565 10.4345 14.775 10.4684 14.9349 10.3404C15.0949 10.2125 14.7223 10.1711 14.5906 10.1636C14.4702 10.1579 14.3649 10.156 14.1824 10.1711C13.8964 10.1993 13.7195 10.2332 13.727 10.2896Z" fill="#269ED1"/>
<path d="M15.1645 9.96608C15.1645 9.96608 15.3357 9.97549 15.3357 10.0319C15.3357 10.1655 15.1927 10.1147 15.1607 10.062C15.1287 10.0094 15.0384 9.97549 15.0384 9.97549C15.0384 9.97549 14.9801 9.96232 14.982 9.93786C14.9857 9.9134 15.0121 9.95855 15.1645 9.96608Z" fill="#269ED1"/>
<path d="M15.3132 9.79102C15.3132 9.79102 15.3114 9.81736 15.4186 9.84746C15.5259 9.87756 15.5767 9.86063 15.5672 9.88697C15.556 9.91143 15.5183 9.93401 15.4675 9.90579C15.4167 9.87756 15.4111 9.85687 15.3622 9.84182C15.3114 9.82488 15.3095 9.81924 15.3132 9.79102Z" fill="#269ED1"/>
<path d="M15.5577 10.1128C15.5577 10.1128 15.5427 10.1072 15.5276 10.1072C15.5257 10.1542 15.5878 10.1824 15.6161 10.158C15.6142 10.1429 15.6142 10.1279 15.5577 10.1128Z" fill="#269ED1"/>
<path d="M17.874 11.7856C17.8852 11.5636 17.9285 11.2851 18.1016 11.2889C18.2352 11.2907 18.2521 11.4243 18.3349 11.6614C18.3349 11.6614 18.3895 11.8533 18.604 12.4761C18.8185 13.0988 18.8899 13.3001 18.8899 13.3001C19.0405 13.7366 19.1853 14.1713 19.3791 14.1788C19.8232 14.1788 19.8683 13.9398 20.1298 13.6595C20.1298 13.6595 19.9455 14.1995 19.5372 14.2879C19.1289 14.3763 18.9878 14.0189 18.937 13.9304C18.8862 13.842 18.1656 11.6877 18.1656 11.6877C18.1656 11.6877 18.1487 11.6256 18.1035 11.6256C18.0583 11.6256 18.0621 11.6971 18.0621 11.6971L18.0565 14.2221C18.0565 14.2221 18.0565 14.3989 17.8081 14.4046C18.0565 14.2578 17.9323 14.081 17.889 13.7743C17.842 13.4262 17.8645 12.1976 17.874 11.7856Z" fill="#2D81B6"/>
<path d="M19.3057 12.378L19.4186 12.7167C19.4186 12.7167 19.4826 12.8729 19.5277 12.7694C19.5729 12.6659 20.4289 10.1034 20.4289 10.1034C20.4289 10.1034 20.587 9.59912 20.9708 9.51257C21.3546 9.42602 21.5616 9.84747 21.5842 9.99987C20.9501 9.07231 20.619 10.1335 20.5569 10.2934C20.4402 10.6001 20.3292 10.95 20.2577 11.1645C20.1994 11.3301 20.0696 11.7214 20.0018 11.9453C19.8833 12.3461 19.6538 13.0629 19.4901 12.9801C19.3753 12.9237 19.285 12.4439 19.3057 12.378Z" fill="#2D81B6"/>
<path d="M16.982 13.7987C16.982 13.7987 17.061 13.921 16.982 14C16.9029 14.0791 16.8672 13.9643 16.8672 13.9643C16.8672 13.9643 16.9368 14.0264 16.9613 13.9756C16.982 13.9323 16.9688 13.8571 16.9688 13.8571C16.9688 13.8571 16.9669 13.7686 16.982 13.7987Z" fill="#269ED1"/>
<path d="M16.888 14.0996C16.888 14.0996 16.8503 14.126 16.8503 14.1504C16.9369 14.0808 16.9425 14.1297 16.9218 14.1617C16.9764 14.1354 16.967 14.0996 16.967 14.0996C16.967 14.0996 16.9519 14.0639 16.888 14.0996Z" fill="#269ED1"/>
<path d="M17.0894 14.0264C17.0894 14.0264 17.1778 14.3669 17.0555 14.4553C16.9332 14.5438 16.8354 14.4478 16.8335 14.3933C16.9671 14.4854 17.0254 14.4064 17.0254 14.4064C17.0254 14.4064 17.1101 14.3218 17.0894 14.0264Z" fill="#269ED1"/>
<path d="M17.2002 14.4495C17.2002 14.4495 17.1889 14.5022 17.2266 14.4909C17.2642 14.4796 17.283 14.4288 17.2529 14.4062C17.2209 14.3855 17.2002 14.3799 17.1852 14.3592C17.1701 14.3385 17.1513 14.3422 17.1494 14.3799C17.2002 14.3629 17.2096 14.4175 17.2002 14.4495Z" fill="#269ED1"/>
<path d="M19.4487 14.4063C19.4487 14.4063 19.6858 14.4307 19.8627 14.2614C20.0395 14.0921 20.175 14.0958 20.2183 14.1711C20.0339 14.156 20.0282 14.2482 19.921 14.3141C19.7197 14.4383 19.6124 14.4514 19.4487 14.4063Z" fill="#269ED1"/>
<path d="M20.8484 14.1447C20.8145 14.1597 20.7355 14.2463 20.7204 14.188C20.7091 14.2519 20.7806 14.2425 20.8258 14.1993C20.8709 14.156 20.8521 14.1748 20.8804 14.1654C20.9086 14.156 20.9067 14.0977 20.8653 14.0977C20.8973 14.1315 20.8484 14.1447 20.8484 14.1447Z" fill="#269ED1"/>
<path d="M21.012 14.1805C21.012 14.1805 20.9029 14.1598 20.8201 14.284C20.8201 14.284 20.8032 14.3178 20.7185 14.3235C20.6339 14.3291 20.6903 14.4552 20.8088 14.4458C20.6941 14.4176 20.7072 14.3348 20.7825 14.3479C20.8239 14.3555 20.8898 14.3197 20.8992 14.2802C20.9086 14.2313 20.9387 14.2087 20.9801 14.1993C21.0083 14.1937 21.0478 14.1899 21.076 14.2162C21.0741 14.1824 21.0365 14.1805 21.012 14.1805Z" fill="#269ED1"/>
<path d="M21.0574 14.3667C21.0574 14.3667 21.0555 14.2237 21.3791 14.1673C21.7046 14.109 21.8645 13.981 21.8777 13.9058C21.8701 14.0036 21.7836 14.077 21.7479 14.0996C21.6839 14.1504 21.5221 14.1842 21.2361 14.2576C21.0611 14.3028 21.1345 14.4062 21.1345 14.4062C21.1345 14.4062 21.0479 14.4025 21.0574 14.3667Z" fill="#269ED1"/>
<path d="M21.7383 9.95476C21.6988 9.88138 21.6969 9.86257 21.6179 9.77979C21.6574 9.83811 21.6913 9.90396 21.7045 9.97358C21.759 10.2332 21.9246 10.1523 21.9453 10.062C21.8964 10.1166 21.8192 10.0846 21.7929 10.0507C21.7703 10.0244 21.759 9.99992 21.7383 9.95476Z" fill="#269ED1"/>
<path d="M5.77789 16.6961C5.65183 16.6961 5.55211 16.681 5.47497 16.6472V16.5023C5.51824 16.5192 5.56528 16.5324 5.6142 16.5418C5.66312 16.5512 5.71392 16.5569 5.76283 16.5569C5.83997 16.5569 5.8983 16.5474 5.93593 16.5305C5.97544 16.5117 5.99426 16.4759 5.99426 16.4214C5.99426 16.3875 5.98673 16.3612 5.9698 16.3424C5.95286 16.3236 5.92652 16.3047 5.89077 16.2897C5.85503 16.2746 5.80235 16.2596 5.73649 16.2445C5.63301 16.2182 5.55964 16.1824 5.51636 16.141C5.47497 16.0997 5.45239 16.0413 5.45239 15.968C5.45239 15.8833 5.48438 15.8156 5.54647 15.7685C5.60855 15.7215 5.70075 15.697 5.82492 15.697C5.88137 15.697 5.93405 15.7008 5.98297 15.7083C6.03188 15.7158 6.0714 15.7252 6.09962 15.7347V15.8795C6.02248 15.8513 5.93969 15.8363 5.8475 15.8363C5.77601 15.8363 5.71956 15.8457 5.67817 15.8645C5.63678 15.8833 5.61796 15.919 5.61796 15.968C5.61796 15.9981 5.62549 16.0206 5.63866 16.0394C5.65183 16.0583 5.67629 16.0733 5.71204 16.0865C5.74778 16.0997 5.79482 16.1147 5.85503 16.1298C5.93405 16.1505 5.99614 16.173 6.03941 16.2013C6.08268 16.2295 6.11467 16.2615 6.1316 16.2972C6.14854 16.3348 6.15794 16.3762 6.15794 16.4214C6.15794 16.5061 6.12596 16.5738 6.06387 16.6227C6.00178 16.6735 5.90583 16.6961 5.77789 16.6961Z" fill="#39C4F3"/>
<path d="M7.93781 16.6962C7.80422 16.6962 7.70074 16.6642 7.62736 16.6002C7.55399 16.5362 7.51636 16.444 7.51636 16.3218V15.7122H7.68004V16.3161C7.68004 16.397 7.70262 16.4572 7.74778 16.4986C7.79293 16.5381 7.85502 16.5588 7.93781 16.5588C8.01871 16.5588 8.08268 16.5381 8.12595 16.4986C8.17111 16.4591 8.19369 16.397 8.19369 16.3161V15.7122H8.35549V16.3218C8.35549 16.444 8.31974 16.5362 8.24637 16.6002C8.17299 16.6642 8.06951 16.6962 7.93781 16.6962Z" fill="#39C4F3"/>
<path d="M10.0845 16.6811L9.71387 15.7122H9.8832L10.1729 16.5061L10.4627 15.7122H10.632L10.2651 16.6811H10.0845Z" fill="#39C4F3"/>
<path d="M11.9773 16.6811V15.7122H12.141V16.5551H12.6377V16.6811H11.9773Z" fill="#39C4F3"/>
<path d="M13.9434 16.6811L14.314 15.7122H14.4984L14.8634 16.6811H14.6941L14.5981 16.4309H14.2086L14.1127 16.6811H13.9434ZM14.235 16.3048H14.5718L14.4024 15.8608L14.235 16.3048Z" fill="#39C4F3"/>
<path d="M16.2295 16.6811V15.7122H16.6754C16.7845 15.7122 16.8635 15.7404 16.9125 15.7949C16.9614 15.8514 16.9877 15.9266 16.9877 16.0207C16.9877 16.0885 16.9708 16.1468 16.9369 16.1957C16.9031 16.2446 16.8541 16.2766 16.7902 16.2973C16.809 16.3105 16.8222 16.3236 16.8316 16.3387C16.841 16.3537 16.8523 16.3744 16.8617 16.3989L16.984 16.6811H16.8146L16.6961 16.4102C16.6848 16.3838 16.6716 16.365 16.6566 16.3537C16.6415 16.3425 16.6152 16.3368 16.5776 16.3368H16.3951V16.6792H16.2295V16.6811ZM16.3932 16.207H16.6302C16.6905 16.207 16.7356 16.1919 16.7695 16.1637C16.8033 16.1336 16.8203 16.0885 16.8203 16.0245C16.8203 15.9022 16.7619 15.842 16.6434 15.842H16.3913V16.207H16.3932Z" fill="#39C4F3"/>
<path d="M18.3518 16.6811V15.7122H18.5155V16.6811H18.3518Z" fill="#39C4F3"/>
</g>
<defs>
<clipPath id="clip0_536_477">
<rect width="24" height="24" fill="white" transform="translate(0 0.519287)"/>
</clipPath>
</defs>
</svg>
